<?xml version="1.0" encoding="iso-8859-1"?>
<!-- Generator: Adobe Illustrator 16.0.0, SVG Export Plug-In . SVG Version: 6.00 Build 0)  -->
<!DOCTYPE svg PUBLIC "-//W3C//DTD SVG 1.1//EN" "http://www.w3.org/Graphics/SVG/1.1/DTD/svg11.dtd">
<svg version="1.1" id="Capa_1" xmlns="http://www.w3.org/2000/svg" xmlns:xlink="http://www.w3.org/1999/xlink" x="0px" y="0px"
	 width="575.279px" height="575.279px" viewBox="0 0 575.279 575.279" style="enable-background:new 0 0 575.279 575.279;"
	 xml:space="preserve" fill="white">
<g>
	<g>
		<path d="M287.64,575.279c158.86,0,287.639-128.779,287.639-287.639C575.279,128.78,446.5,0,287.64,0S0,128.78,0,287.641
			C0,446.5,128.78,575.279,287.64,575.279z M324.557,78.856v83.917v106.169c0,20.389-16.527,36.916-36.917,36.916
			c-20.389,0-36.916-16.527-36.916-36.916V162.771V78.856c0-3.592,0.539-7.053,1.497-10.337
			c4.474-15.352,18.623-26.579,35.422-26.579c16.8,0,30.949,11.227,35.423,26.579C324.018,71.8,324.557,75.264,324.557,78.856z
			 M226.48,74.211c-0.116,1.539-0.236,3.075-0.236,4.645v93.755c-42.415,22.206-71.438,66.631-71.438,117.736
			c0,73.244,59.59,132.836,132.834,132.836c73.245,0,132.834-59.592,132.834-132.836c0-51.102-29.023-95.53-71.439-117.736V78.856
			c0-1.567-0.119-3.106-0.234-4.645c94.324,26.643,163.475,113.284,163.475,216.136c0,124.062-100.574,224.635-224.635,224.635
			c-124.062,0-224.635-100.572-224.635-224.635C63.005,187.496,132.155,100.852,226.48,74.211z"/>
	</g>
</g>
</svg>
